<svg version="1.1" viewBox="0.0 0.0 433.4173228346457 135.92125984251967" fill="none" stroke="none" stroke-linecap="square" stroke-miterlimit="10" xmlns:xlink="http://www.w3.org/1999/xlink" xmlns="http://www.w3.org/2000/svg"><clipPath id="p.0"><path d="m0 0l433.41733 0l0 135.92126l-433.41733 0l0 -135.92126z" clip-rule="nonzero"/></clipPath><g clip-path="url(#p.0)"><path fill="#000000" fill-opacity="0.0" d="m0 0l433.41733 0l0 135.92126l-433.41733 0z" fill-rule="evenodd"/><g filter="url(#shadowFilter-p.1)"><use xlink:href="#p.1" transform="matrix(1.0 0.0 0.0 1.0 -4.095760629921259 2.8678813648293917)"/></g><defs><filter id="shadowFilter-p.1" filterUnits="userSpaceOnUse"><feGaussianBlur in="SourceAlpha" stdDeviation="2.0" result="blur"/><feComponentTransfer in="blur" color-interpolation-filters="sRGB"><feFuncR type="linear" slope="0" intercept="0.0"/><feFuncG type="linear" slope="0" intercept="0.0"/><feFuncB type="linear" slope="0" intercept="0.0"/><feFuncA type="linear" slope="0.84" intercept="0"/></feComponentTransfer></filter></defs><g id="p.1"><path fill="#686de0" d="m8.0 0l423.00516 4.7926507l-6.447693 79.068245l-388.187 44.325462z" fill-rule="evenodd"/></g><g filter="url(#shadowFilter-p.2)"><use xlink:href="#p.2" transform="matrix(1.0 0.0 0.0 1.0 -6.55321627296588 4.588611548556426)"/></g><defs><filter id="shadowFilter-p.2" filterUnits="userSpaceOnUse"><feGaussianBlur in="SourceAlpha" stdDeviation="2.0" result="blur"/><feComponentTransfer in="blur" color-interpolation-filters="sRGB"><feFuncR type="linear" slope="0" intercept="0.0"/><feFuncG type="linear" slope="0" intercept="0.0"/><feFuncB type="linear" slope="0" intercept="0.0"/><feFuncA type="linear" slope="0.91" intercept="0"/></feComponentTransfer></filter></defs><g id="p.2"><path fill="#ffffff" d="m61.915825 40.44365l-16.013142 1.4875565l0.4363861 6.2429657l4.6511345 1.2949715l2.4610596 35.208042l-4.4203186 2.0070953l0.43638992 6.2429657l21.932125 -1.5329361l-0.4363861 -6.242958l-5.7371674 -1.3125381l0 0l-0.9320984 -13.334671l13.196724 -0.92237854l-0.62978363 -9.009731l-13.196728 0.9223747l-0.8430214 -12.060272l10.502411 -0.7340584l1.4915466 4.9335327l6.89579 -0.48197556l-1.0463104 -14.018402z" fill-rule="evenodd"/><path fill="#ffffff" d="m120.55678 48.39289l-15.585724 1.7428398l0.431427 6.17202l4.242462 1.3078728l1.3839569 19.798965l0 0c-0.93159485 0.9248047 -1.8697891 1.6496735 -2.8146057 2.1746063c-1.1511154 0.63492584 -2.2260513 0.98729706 -3.2248077 1.057106c-1.30719 0.091362 -2.3892975 -0.29242706 -3.246338 -1.1513672c-0.85025024 -0.86733246 -1.3414917 -2.2469025 -1.473732 -4.13871l-1.7719955 -25.35022l-15.590683 1.6718941l0.431427 6.172024l4.241028 1.2873573l1.327095 18.9855c0.30470276 4.3590393 1.5671844 7.5342636 3.7874374 9.525688c2.2270584 1.9830246 4.853401 2.8687973 7.8790207 2.6573257c2.210472 -0.15450287 4.4804153 -0.8834686 6.809822 -2.1869125c1.9177094 -1.0768433 3.7383041 -2.5472107 5.4617767 -4.411087l0 0l1.5103302 5.3376846l13.019081 -1.563446l-0.4363861 -6.2429657l-4.175728 -1.3032379l-2.2048645 -31.542938z" fill-rule="evenodd"/><path fill="#ffffff" d="m140.72705 29.457798l-15.579941 1.8256054l0.431427 6.172022l4.219818 1.1421318l2.8445587 40.694466l-4.012146 1.828682l0.4363861 6.2429657l19.76204 -1.3812485l-0.4363861 -6.2429657l-4.2386017 -1.2526474l-3.4271545 -49.02901z" fill-rule="evenodd"/><path fill="#ffffff" d="m162.52002 27.934595l-15.579941 1.8256054l0.431427 6.172024l4.219818 1.142128l2.8445587 40.69447l-4.012146 1.828682l0.4363861 6.2429657l19.76204 -1.3812561l-0.4363861 -6.242958l-4.2386017 -1.2526474l-3.4271545 -49.029015z" fill-rule="evenodd"/><path fill="#ffffff" d="m257.92288 25.793362c-3.4295502 0.23970413 -6.4703064 1.0265121 -9.122284 2.3604202c-2.6452026 1.3255138 -4.6768036 3.1942997 -6.094818 5.6063538c-1.4180145 2.4120598 -2.0019531 5.407421 -1.7518005 8.986088c0.18623352 2.6642952 0.76727295 4.8534584 1.7431335 6.567486c0.9826355 1.7056313 2.223404 3.0922241 3.72229 4.159775c1.5056915 1.0591545 3.129242 1.9041252 4.8706512 2.5349083c1.7487488 0.6302719 3.497406 1.153614 5.2459564 1.570034c1.7553711 0.4080162 3.362915 0.8659744 4.822693 1.373867c1.4671326 0.5073776 2.656372 1.1569519 3.567749 1.9487228c0.9181824 0.7833786 1.4246521 1.8529625 1.5194092 3.2087555c0.084869385 1.213913 -0.20471191 2.2440872 -0.8687744 3.0905228c-0.664032 0.8464432 -1.5689392 1.5196075 -2.7147522 2.0195084c-1.1463318 0.49201202 -2.439209 0.7883301 -3.8785706 0.8889313c-1.3586121 0.094955444 -2.7731018 0.023521423 -4.243515 -0.21430969c-1.1669769 -0.19010925 -2.284378 -0.47691345 -3.3522034 -0.8604126l0 0l-1.8049927 -6.8823586l-6.6974945 0.46812057l0.61808777 14.70182c2.5973358 0.840271 5.220825 1.4212875 7.870453 1.743042c2.657547 0.32912445 5.2274017 0.40693665 7.7095795 0.23344421c3.6058044 -0.2520218 6.878174 -1.0510559 9.817108 -2.3971024c2.9457397 -1.3544388 5.2381287 -3.2929382 6.8771973 -5.8154984c1.6390381 -2.5225601 2.3266296 -5.6716995 2.062683 -9.447437c-0.17962646 -2.569706 -0.772583 -4.7184334 -1.7789001 -6.446167c-1.006897 -1.7356224 -2.2640076 -3.1448364 -3.7713318 -4.2276382c-1.5005493 -1.091198 -3.1268616 -1.9755821 -4.8789062 -2.6531487c-1.7447205 -0.6780777 -3.5076904 -1.2479439 -5.2889404 -1.7096062c-1.7738953 -0.46216965 -3.3941345 -0.9430046 -4.8606873 -1.4425011c-1.4597778 -0.5078888 -2.647934 -1.1416969 -3.5644531 -1.9014282c-0.909729 -0.7681236 -1.4070129 -1.75914 -1.4918671 -2.973053c-0.08099365 -1.1587296 0.19096375 -2.1243057 0.8159027 -2.896721c0.62438965 -0.7802963 1.4873505 -1.367363 2.588913 -1.7611961c1.108902 -0.39434814 2.3206024 -0.6374588 3.635147 -0.7293396c1.1676636 -0.08161163 2.3356934 -0.05235672 3.5040894 0.087768555c0.78778076 0.09448242 1.5515137 0.22845459 2.2911377 0.40192413l0 0l1.9040833 6.5644913l6.9729004 -0.48736572l-0.20581055 -13.554361c-2.689331 -0.8892937 -5.396332 -1.5040741 -8.121063 -1.8443413c-2.7179565 -0.34866333 -5.2739563 -0.43932915 -7.6679993 -0.27199745z" fill-rule="evenodd"/><path fill="#ffffff" d="m294.03635 25.823772l-11.342438 3.062151l0.59420776 8.501028l-4.7683105 1.9375725l0.4520874 6.467617l4.8799133 -0.3410759l1.3099976 18.740715c0.3046875 4.3590393 1.4007263 7.581543 3.288147 9.667519c1.8941956 2.0775833 4.556061 2.9965134 7.9855957 2.756813c3.833435 -0.2679367 7.71817 -1.7553406 11.654175 -4.462204l-2.5549927 -6.463211c-1.0158081 0.45912933 -1.9346008 0.8283005 -2.7563477 1.1075363c-0.8149719 0.27082825 -1.5602722 0.42985535 -2.2359009 0.47707367c-1.2190552 0.08520508 -2.1542969 -0.30884552 -2.805725 -1.1821594c-0.651947 -0.88118744 -1.0492859 -2.342579 -1.1919861 -4.3841515l-1.192627 -17.061737l8.867584 -0.61979294l-0.35437012 -8.078461l-9.076904 0.6344223l-0.7521057 -10.759655z" fill-rule="evenodd"/><path fill="#ffffff" d="m329.3414 56.945335l0.400177 5.7251434l0 0c-0.7692566 0.9174614 -1.5918884 1.6593094 -2.4678955 2.225563c-1.0167236 0.65722656 -1.9987488 1.0189362 -2.946106 1.0851517c-1.0428162 0.072891235 -1.9281921 -0.24147797 -2.6561584 -0.94309235c-0.72854614 -0.7095032 -1.1467896 -1.8367462 -1.2547913 -3.3817177c-0.10192871 -1.458271 0.19619751 -2.524685 0.89437866 -3.1992455c0.7049866 -0.6829605 2.0048218 -1.0906525 3.8995361 -1.2230797zm-3.8205872 -23.460445c-2.254547 0.15757751 -4.7315063 0.564373 -7.430847 1.2203865c-2.6999207 0.6481285 -5.6612854 1.5680046 -8.884064 2.7596245l1.3373413 11.372238l7.038971 -0.49198532l0.51297 -4.666912l0 0c0.7612915 -0.26657104 1.4963074 -0.47727966 2.205017 -0.6321335c0.9667969 -0.21015167 1.8540955 -0.34345627 2.6619263 -0.3999176c1.8065491 -0.1262703 3.1818542 0.22910309 4.125946 1.0661163c0.94351196 0.8291321 1.4863281 2.2605438 1.628479 4.294239l0.20828247 2.9795952l-6.025543 0.4211502c-3.253296 0.22738647 -5.9361267 0.80303574 -8.048553 1.7269402c-2.105072 0.92339706 -3.653656 2.2593994 -4.645752 4.0079956c-0.99209595 1.7486076 -1.3933716 3.9787064 -1.2038269 6.6902924c0.25732422 3.6811447 1.4181824 6.5109863 3.482544 8.48954c2.0711975 1.9701538 4.663666 2.8464127 7.777405 2.6287842c2.2986145 -0.16065979 4.4318542 -0.89196014 6.3997803 -2.193901c1.7789307 -1.1804352 3.3492126 -2.818779 4.710785 -4.9150314l0 0l1.6579285 5.919449l13.085175 -1.5680695l-0.43637085 -6.2429657l-4.2492065 -1.404068l0 0l-1.3701782 -19.601864c-0.2975464 -4.256565 -1.6695251 -7.309288 -4.115967 -9.158161c-2.439087 -1.8493881 -5.9131775 -2.6165009 -10.422241 -2.301342z" fill-rule="evenodd"/><path fill="#ffffff" d="m364.16132 30.784138c-2.298584 0.16065979 -4.540436 0.657959 -6.7255554 1.4918938c-2.1851196 0.8339348 -4.1360474 2.1148834 -5.852783 3.8428497c-1.7173157 1.7200775 -3.0381165 3.9391975 -3.9624329 6.6573486c-0.9169922 2.71764 -1.2366333 6.0628586 -0.95892334 10.035656c0.3013916 4.3117447 1.3024597 7.917141 3.0031433 10.816189c1.7007141 2.8990479 3.9023438 5.0462265 6.604889 6.4415436c2.7019958 1.3874359 5.6539307 1.9692535 8.855804 1.7454605c2.665802 -0.18631744 5.2813416 -0.880043 7.8466797 -2.0811539c2.5726624 -1.2016296 5.069519 -2.9603577 7.490509 -5.276169l-4.159668 -5.982731c-1.7250366 1.292881 -3.345581 2.2853851 -4.8616943 2.9775085c-1.5166321 0.68424225 -2.950592 1.0735855 -4.3018494 1.1680298c-1.5348511 0.10727692 -2.9200745 -0.23155975 -4.15567 -1.0165138c-1.2288208 -0.7933464 -2.2207336 -2.0507927 -2.975708 -3.7723389c-0.7555542 -1.7294273 -1.2245178 -3.8987007 -1.4068909 -6.5078163c-0.16253662 -2.325348 -0.0680542 -4.351818 0.2835083 -6.0794144c0.3588562 -1.7281036 1.0450134 -3.1028366 2.0584412 -4.124195c1.0133972 -1.0213585 2.4013672 -1.5936279 4.163849 -1.7168198c0.77111816 -0.053894043 1.5649719 -0.04601288 2.3815918 0.023647308c0.43643188 0.03246689 0.828125 0.078071594 1.1751709 0.13681412l0 0l1.3676758 5.0440407l7.2372437 -0.5058403l-0.52215576 -11.4292145c-1.3512878 -0.539238 -3.1897888 -1.0285759 -5.515564 -1.4680176c-2.3190002 -0.447834 -4.675537 -0.5880871 -7.0696106 -0.4207573z" fill-rule="evenodd"/><path fill="#ffffff" d="m393.9857 11.756478l-15.579956 1.8256054l0.431427 6.172023l4.223358 1.192749l2.8454895 40.70758l-4.016632 1.7649536l0.43640137 6.2429657l19.486664 -1.3620071l-0.43640137 -6.242962l-3.9665222 -1.3193474l-0.65097046 -9.312721l4.408539 -0.30813217l8.763855 16.615726l12.183319 -0.8515396l-0.43640137 -6.2429657l-4.0243225 -1.0241814l-7.9809875 -14.144848l5.8179626 -10.548176l3.1622925 -1.0900383l-0.43640137 -6.2429657l-17.21109 1.9277325l0.4322815 6.1838436l3.0009155 0.4871254l-3.596527 6.778496l-4.652069 0.32515335l-2.2042236 -31.53407z" fill-rule="evenodd"/></g><g filter="url(#shadowFilter-p.3)"><use xlink:href="#p.3" transform="matrix(1.0 0.0 0.0 1.0 -6.553216272965876 4.588611548556426)"/></g><defs><filter id="shadowFilter-p.3" filterUnits="userSpaceOnUse"><feGaussianBlur in="SourceAlpha" stdDeviation="2.0" result="blur"/><feComponentTransfer in="blur" color-interpolation-filters="sRGB"><feFuncR type="linear" slope="0" intercept="0.0"/><feFuncG type="linear" slope="0" intercept="0.0"/><feFuncB type="linear" slope="0" intercept="0.0"/><feFuncA type="linear" slope="0.91" intercept="0"/></feComponentTransfer></filter></defs><g id="p.3"><path fill="#be2edd" d="m201.68823 28.337828l13.363525 -18.269447l-1.0641022 24.307373l13.981918 -10.960829l-6.533188 14.137575l20.96083 0.47546005l-18.531464 11.600384l5.159897 7.9439735l-7.589264 4.2917633l10.026657 13.977688l-17.01361 -5.394165l1.212677 12.706993l-11.090759 -6.0379257l-2.2808075 12.231529l-6.9869385 -6.1936035l-4.7061462 9.854225l-4.7101746 -6.6774826l-10.480408 14.621452l-0.44973755 -14.137573l-14.134506 -1.7461624l8.21167 -10.329681l-13.371567 -10.489578l15.800934 -5.4067802l-11.094788 -13.977688l16.865036 -1.9060478l-3.4934692 -17.638308l16.254684 11.600386l4.7061462 -18.913214z" fill-rule="evenodd"/></g><g filter="url(#shadowFilter-p.4)"><use xlink:href="#p.4" transform="matrix(1.0 0.0 0.0 1.0 -3.276608136482938 2.294305774278213)"/></g><defs><filter id="shadowFilter-p.4" filterUnits="userSpaceOnUse"><feGaussianBlur in="SourceAlpha" stdDeviation="2.0" result="blur"/><feComponentTransfer in="blur" color-interpolation-filters="sRGB"><feFuncR type="linear" slope="0" intercept="0.0"/><feFuncG type="linear" slope="0" intercept="0.0"/><feFuncB type="linear" slope="0" intercept="0.0"/><feFuncA type="linear" slope="0.91" intercept="0"/></feComponentTransfer></filter></defs><g id="p.4"><path fill="#ffffff" d="m184.60274 52.18153c1.028595 -0.07188797 1.8579102 0.16756439 2.4879456 0.7183571c0.63623047 0.5503578 1.1082611 1.379528 1.4160919 2.4875145c0.23817444 0.8572197 0.4046173 1.8614655 0.49934387 3.012745l-8.622894 0.6026497c0.0234375 -0.6840515 0.079574585 -1.3429489 0.16841125 -1.976696c0.19683838 -1.3704948 0.606781 -2.4985695 1.2297974 -3.384224c0.6292114 -0.8860855 1.5696411 -1.3728714 2.8213043 -1.4603462zm0.2853546 -7.408474c-3.1973114 0.22345734 -5.9078064 1.1313629 -8.13147 2.723709c-2.2174835 1.5919151 -3.862152 3.7620163 -4.9340515 6.5102997c-1.0723419 2.7416344 -1.4771729 5.9913406 -1.2144928 9.749119c0.25431824 3.6380577 1.0565948 6.6530266 2.4068604 9.044895c1.3559875 2.384781 3.1620483 4.1265793 5.4181824 5.22538c2.261856 1.0917206 4.8179474 1.5379791 7.6682587 1.338768c2.2864532 -0.15979767 4.581482 -0.73122406 6.8851013 -1.7142868c2.3036346 -0.98306274 4.540085 -2.3925095 6.709366 -4.228348l-3.5738983 -5.1637955c-1.4987183 1.0070114 -2.9472504 1.7966385 -4.3455963 2.3688889c-1.3926086 0.5651703 -2.680664 0.8891144 -3.8641663 0.97182465c-1.7473755 0.12212372 -3.150238 -0.2610321 -4.208603 -1.1494827c-1.0588226 -0.8950958 -1.8358917 -2.1240005 -2.3311768 -3.6867294c-0.20347595 -0.65244293 -0.37651062 -1.338768 -0.519104 -2.0589752l18.079407 -1.2635574c0.1321106 -0.8713951 0.19744873 -1.7180748 0.19602966 -2.540039c0.004776001 -0.8223953 -0.02003479 -1.622673 -0.07443237 -2.4008331c-0.19433594 -2.7800903 -0.81837463 -5.249447 -1.8721313 -7.408062c-1.0480347 -2.1657028 -2.589035 -3.8124008 -4.6230316 -4.940098c-2.0282593 -1.1347809 -4.585266 -1.5943413 -7.671051 -1.3786774z" fill-rule="evenodd"/><path fill="#ffffff" d="m222.35614 42.154434c-1.8651123 0.1303482 -3.6021576 0.75634766 -5.2111664 1.8779984c-1.3187408 0.9167671 -2.642868 2.1481705 -3.9723969 3.69421l0 0l-1.2386017 -4.352577l-10.975647 1.3184624l0.3640442 5.2076836l3.5691833 1.0879669l0 0l1.3726501 19.636173l0 0l-3.3901367 1.4733582l0.3682251 5.26754l17.58522 -1.2290268l-0.3682251 -5.26754l-4.4824066 -0.9244385l0 0l-1.1563721 -16.542297l0 0c0.46221924 -0.6056442 1.0059204 -1.15625 1.6310883 -1.6518173c0.9611969 -0.76894 1.9560852 -1.1893501 2.9846802 -1.2612381c0.2250061 -0.015727997 0.4394226 -0.011398315 0.64323425 0.012981415l0 0l1.0187683 4.9235306l5.5953064 -0.39105225l-0.35403442 -12.546783c-1.4411316 -0.3069725 -2.7689362 -0.41801453 -3.9834137 -0.3331337z" fill-rule="evenodd"/></g></g></svg>