<svg version="1.1" viewBox="0.0 0.0 403.002624671916 137.36745406824147" fill="none" stroke="none" stroke-linecap="square" stroke-miterlimit="10" xmlns:xlink="http://www.w3.org/1999/xlink" xmlns="http://www.w3.org/2000/svg"><clipPath id="p.0"><path d="m0 0l403.00262 0l0 137.36745l-403.00262 0l0 -137.36745z" clip-rule="nonzero"/></clipPath><g clip-path="url(#p.0)"><path fill="#000000" fill-opacity="0.0" d="m0 0l403.00262 0l0 137.36745l-403.00262 0z" fill-rule="evenodd"/><g filter="url(#shadowFilter-p.1)"><use xlink:href="#p.1" transform="matrix(1.0 0.0 0.0 1.0 -4.095760629921259 2.8678813648293917)"/></g><defs><filter id="shadowFilter-p.1" filterUnits="userSpaceOnUse"><feGaussianBlur in="SourceAlpha" stdDeviation="2.0" result="blur"/><feComponentTransfer in="blur" color-interpolation-filters="sRGB"><feFuncR type="linear" slope="0" intercept="0.0"/><feFuncG type="linear" slope="0" intercept="0.0"/><feFuncB type="linear" slope="0" intercept="0.0"/><feFuncA type="linear" slope="0.84" intercept="0"/></feComponentTransfer></filter></defs><g id="p.1"><path fill="#8e7cc3" d="m8.0 0l392.9449 4.7926507l-5.989502 79.068245l-360.60104 44.325462z" fill-rule="evenodd"/></g><g filter="url(#shadowFilter-p.2)"><use xlink:href="#p.2" transform="matrix(1.0 0.0 0.0 1.0 -6.55321627296588 4.588611548556426)"/></g><defs><filter id="shadowFilter-p.2" filterUnits="userSpaceOnUse"><feGaussianBlur in="SourceAlpha" stdDeviation="2.0" result="blur"/><feComponentTransfer in="blur" color-interpolation-filters="sRGB"><feFuncR type="linear" slope="0" intercept="0.0"/><feFuncG type="linear" slope="0" intercept="0.0"/><feFuncB type="linear" slope="0" intercept="0.0"/><feFuncA type="linear" slope="0.91" intercept="0"/></feComponentTransfer></filter></defs><g id="p.2"><path fill="#ffffff" d="m61.91584 40.44365l-16.013142 1.4875565l0.4363861 6.2429657l4.6511345 1.2949677l2.4610596 35.20804l0 0l-4.4203186 2.007103l0.4363861 6.242958l21.932129 -1.5329285l-0.4363861 -6.2429657l-5.7371674 -1.3125381l0 0l-0.9320984 -13.334663l13.196724 -0.92237854l-0.62978363 -9.009731l-13.196728 0.9223747l-0.8430214 -12.060272l10.502411 -0.7340584l1.4915466 4.9335327l6.89579 -0.48197556l-1.0463104 -14.018406z" fill-rule="evenodd"/><path fill="#ffffff" d="m120.55679 48.39289l-15.5857315 1.7428398l0.43143463 6.17202l4.242462 1.3078728l1.3839569 19.798965l0 0c-0.93159485 0.9248047 -1.8697968 1.6496735 -2.8146057 2.1746063c-1.151123 0.63492584 -2.2260513 0.98729706 -3.2248077 1.0570984c-1.30719 0.09136963 -2.3892975 -0.29241943 -3.246338 -1.1513596c-0.85025024 -0.86733246 -1.3414917 -2.2469025 -1.473732 -4.13871l-1.7719955 -25.350224l-15.590683 1.6718979l0.431427 6.17202l4.241028 1.2873611l1.327095 18.9855c0.30470276 4.3590393 1.5671844 7.5342636 3.7874374 9.525688c2.2270584 1.9830246 4.853401 2.8687973 7.8790207 2.6573257c2.210472 -0.15450287 4.4804153 -0.8834686 6.8098145 -2.1869125c1.917717 -1.0768509 3.7383118 -2.5472107 5.4617767 -4.411087l0 0l1.5103378 5.3376846l13.019081 -1.563446l-0.4363861 -6.2429657l-4.175728 -1.3032455l-2.2048645 -31.54293z" fill-rule="evenodd"/><path fill="#ffffff" d="m140.72707 29.457798l-15.579941 1.8256054l0.431427 6.172022l4.219818 1.142128l2.8445587 40.69447l-4.012146 1.828682l0.4363861 6.2429657l19.76204 -1.3812485l-0.4363861 -6.2429657l-4.2386017 -1.2526474l-3.4271545 -49.02901z" fill-rule="evenodd"/><path fill="#ffffff" d="m162.52003 27.934595l-15.579941 1.8256054l0.431427 6.17202l4.219818 1.1421318l2.8445587 40.69447l-4.012146 1.828682l0.4363861 6.2429657l19.76204 -1.3812561l-0.4363861 -6.2429657l-4.2386017 -1.2526398l-3.4271545 -49.029015z" fill-rule="evenodd"/><path fill="#ffffff" d="m200.39488 29.814238c-3.429535 0.23970413 -6.4703064 1.0265121 -9.122284 2.3604221c-2.6451874 1.3255119 -4.6767883 3.1942978 -6.094818 5.6063538c-1.4180145 2.412056 -2.0019379 5.407421 -1.7518005 8.986088c0.18624878 2.6642952 0.7672882 4.8534546 1.7431335 6.567486c0.9826355 1.7056313 2.223404 3.0922203 3.7223053 4.159775c1.5056763 1.0591545 3.1292267 1.9041252 4.870636 2.5349083c1.7487488 0.6302681 3.497406 1.153614 5.2459717 1.5700302c1.7553558 0.40802002 3.362915 0.8659744 4.822693 1.373867c1.4671173 0.50738144 2.6563568 1.1569519 3.567749 1.9487228c0.9181671 0.7833786 1.4246521 1.8529663 1.5194092 3.2087631c0.084854126 1.2139053 -0.20472717 2.2440796 -0.8687744 3.0905151c-0.664032 0.8464432 -1.5689545 1.5196152 -2.7147522 2.0195084c-1.146347 0.49201965 -2.439209 0.7883301 -3.8785858 0.8889313c-1.3585968 0.094963074 -2.7731018 0.023521423 -4.243515 -0.21430969c-1.1669769 -0.19010925 -2.284378 -0.47691345 -3.352188 -0.8604126l0 0l-1.8049927 -6.8823547l-6.69751 0.46811676l0.618103 14.70182c2.5973206 0.8402786 5.22081 1.4212875 7.870453 1.743042c2.6575317 0.32912445 5.2274017 0.40693665 7.7095795 0.23344421c3.6057892 -0.2520218 6.8781586 -1.0510559 9.817093 -2.3971024c2.9457397 -1.3544388 5.2381287 -3.2929382 6.8771973 -5.8154984c1.6390533 -2.5225525 2.3266296 -5.6716995 2.0626984 -9.447433c-0.17962646 -2.5697098 -0.77259827 -4.7184334 -1.7789154 -6.446171c-1.0068817 -1.7356224 -2.2639923 -3.1448364 -3.7713318 -4.2276382c-1.5005493 -1.091198 -3.1268463 -1.9755783 -4.8789062 -2.6531448c-1.7447052 -0.6780815 -3.5076904 -1.2479477 -5.288925 -1.70961c-1.7739105 -0.46216965 -3.3941345 -0.9430008 -4.8607025 -1.4424973c-1.4597778 -0.5078888 -2.6479187 -1.1417007 -3.5644379 -1.9014282c-0.909729 -0.76812744 -1.4070282 -1.7591438 -1.4918823 -2.973053c-0.08099365 -1.1587334 0.190979 -2.1243057 0.81591797 -2.896721c0.6243744 -0.78030014 1.4873505 -1.367363 2.5888977 -1.7612c1.108902 -0.39434814 2.3206177 -0.6374588 3.635147 -0.7293358c1.1676636 -0.08161163 2.3356934 -0.05235672 3.5040894 0.087768555c0.787796 0.09447861 1.5515137 0.22845459 2.291153 0.40192032l0 0l1.904068 6.5644913l6.9729004 -0.48736572l-0.20581055 -13.554359c-2.6893158 -0.8892937 -5.396332 -1.5040741 -8.121063 -1.8443432c-2.7179413 -0.34866142 -5.273941 -0.43932724 -7.6679993 -0.27199554z" fill-rule="evenodd"/><path fill="#ffffff" d="m236.50838 29.844648l-11.342468 3.062151l0.5942383 8.501026l0 0l-4.768341 1.9375763l0.4520874 6.467617l4.8799286 -0.3410797l1.3099823 18.740715c0.30470276 4.3590393 1.4007568 7.581543 3.2881622 9.667526c1.8941956 2.0775757 4.556061 2.9965134 7.9855957 2.7568054c3.833435 -0.2679367 7.71817 -1.7553406 11.654175 -4.4621964l-2.5549774 -6.4632187c-1.0158234 0.45912933 -1.9346008 0.8283081 -2.756363 1.1075363c-0.8149719 0.27082825 -1.5602722 0.42985535 -2.2359009 0.47707367c-1.2190552 0.08520508 -2.1542969 -0.30884552 -2.8057098 -1.1821594c-0.6519623 -0.88118744 -1.0493011 -2.342575 -1.1920166 -4.3841476l-1.192627 -17.06174l8.867584 -0.61979294l-0.35437012 -8.078461l-9.076874 0.6344223l-0.7521057 -10.759653z" fill-rule="evenodd"/><path fill="#ffffff" d="m271.81342 60.96621l0.400177 5.7251434l0 0c-0.7692566 0.9174576 -1.5918884 1.659317 -2.467865 2.225563c-1.0167542 0.65722656 -1.9987793 1.0189362 -2.946106 1.0851517c-1.0428162 0.072891235 -1.9282227 -0.24147797 -2.656189 -0.94309235c-0.7285156 -0.7095032 -1.1467896 -1.8367462 -1.2547607 -3.3817215c-0.10195923 -1.4582672 0.19616699 -2.524681 0.89437866 -3.1992416c0.7049866 -0.6829605 2.0048218 -1.0906525 3.8995056 -1.2230797zm-3.8205872 -23.460445c-2.2545166 0.15757751 -4.731476 0.564373 -7.430847 1.2203865c-2.6999207 0.6481285 -5.66127 1.5680046 -8.884048 2.7596245l1.337326 11.372238l7.0390015 -0.49198532l0.51297 -4.666912l0 0c0.7612915 -0.26657104 1.4962769 -0.47727966 2.2049866 -0.63212967c0.9667969 -0.21015549 1.854126 -0.34346008 2.6619263 -0.39992142c1.8065796 -0.1262703 3.1818848 0.22910309 4.125946 1.0661163c0.94351196 0.8291321 1.4863586 2.2605438 1.6285095 4.294239l0.20828247 2.9795952l-6.0255737 0.4211502c-3.2532654 0.22738647 -5.9361267 0.80303574 -8.048523 1.7269402c-2.105072 0.92339706 -3.653656 2.2593994 -4.645752 4.0079956c-0.99209595 1.7486076 -1.3933716 3.9787064 -1.2038422 6.6902924c0.25732422 3.6811447 1.4181671 6.510994 3.4825592 8.48954c2.071167 1.9701538 4.6636353 2.8464127 7.777405 2.6287842c2.298584 -0.16065979 4.4318237 -0.89196014 6.3997498 -2.193901c1.7789612 -1.1804352 3.3492126 -2.818779 4.710785 -4.9150314l0 0l1.6579285 5.919449l13.085205 -1.5680695l-0.43640137 -6.2429657l-4.249176 -1.404068l0 0l-1.3701782 -19.601864c-0.2975464 -4.256565 -1.6695251 -7.309288 -4.1159973 -9.158161c-2.439087 -1.8493881 -5.9131775 -2.6165009 -10.422241 -2.301342z" fill-rule="evenodd"/><path fill="#ffffff" d="m306.63336 34.80501c-2.2986145 0.16065979 -4.5404663 0.657959 -6.725586 1.4918938c-2.1851196 0.8339348 -4.1360474 2.1148834 -5.852783 3.8428497c-1.7172852 1.7200813 -3.038086 3.9391975 -3.9624329 6.6573486c-0.91696167 2.71764 -1.2366028 6.0628586 -0.95892334 10.035656c0.30142212 4.3117447 1.3024597 7.917141 3.0031738 10.816189c1.7007141 2.8990479 3.9023438 5.0462265 6.604889 6.4415436c2.7019653 1.3874359 5.6539307 1.9692535 8.855804 1.7454605c2.6657715 -0.18631744 5.2813416 -0.880043 7.846649 -2.0811539c2.5726929 -1.2016296 5.069519 -2.9603577 7.490509 -5.276169l-4.159668 -5.982731c-1.7250061 1.292881 -3.345581 2.2853813 -4.861664 2.9775124c-1.5166626 0.6842346 -2.9506226 1.0735855 -4.30188 1.1680298c-1.5348206 0.10727692 -2.920044 -0.23155975 -4.15567 -1.0165176c-1.2288208 -0.7933502 -2.2207336 -2.0507927 -2.975708 -3.7723389c-0.7555237 -1.7294273 -1.2244873 -3.8987007 -1.4068604 -6.5078163c-0.16253662 -2.325348 -0.0680542 -4.351818 0.28347778 -6.0794144c0.35888672 -1.7281036 1.045044 -3.1028366 2.0584412 -4.124195c1.0134277 -1.0213585 2.4013672 -1.5936279 4.1638794 -1.7168198c0.77108765 -0.053894043 1.5649414 -0.04601288 2.3815918 0.023647308c0.43640137 0.03246689 0.828125 0.078071594 1.1751404 0.13681412l0 0l1.3676758 5.0440407l7.237274 -0.5058403l-0.5221863 -11.4292145c-1.3512573 -0.53923416 -3.1897888 -1.0285759 -5.515564 -1.4680176c-2.3190002 -0.447834 -4.675537 -0.588089 -7.06958 -0.4207573z" fill-rule="evenodd"/><path fill="#ffffff" d="m336.4577 15.777352l-15.579956 1.8256063l0.43145752 6.172022l4.2233276 1.192749l2.8454895 40.70758l-4.0166016 1.7649536l0.43637085 6.2429657l19.486664 -1.3620071l-0.43637085 -6.2429657l-3.9665527 -1.3193436l-0.65093994 -9.312721l4.408539 -0.30812836l8.763855 16.615723l12.183289 -0.8515396l-0.43640137 -6.2429657l-4.0243225 -1.0241814l-7.980957 -14.144848l5.8179626 -10.548176l3.162262 -1.0900383l-0.43637085 -6.2429657l-17.21109 1.9277306l0.43225098 6.1838455l3.0009155 0.4871254l-3.5964966 6.778496l-4.652069 0.32515335l-2.2042542 -31.53407z" fill-rule="evenodd"/></g></g></svg>